<mxfile host="65bd71144e">
    <diagram id="B_yJiZcyhZHxWvBdPLsg" name="Page-1">
        <mxGraphModel dx="1125" dy="443" grid="1" gridSize="10" guides="1" tooltips="1" connect="1" arrows="1" fold="1" page="1" pageScale="1" pageWidth="827" pageHeight="1169" math="0" shadow="0">
            <root>
                <mxCell id="0"/>
                <mxCell id="1" parent="0"/>
                <mxCell id="4" value="(граф, исходный_узел, &lt;br&gt;конечный_узел)" style="edgeStyle=orthogonalEdgeStyle;html=1;entryX=0.5;entryY=0;entryDx=0;entryDy=0;strokeWidth=2;fontSize=14;" parent="1" target="2" edge="1">
                    <mxGeometry relative="1" as="geometry">
                        <mxPoint x="130" y="40" as="sourcePoint"/>
                        <mxPoint x="170" y="240" as="targetPoint"/>
                    </mxGeometry>
                </mxCell>
                <mxCell id="25" value="" style="edgeStyle=orthogonalEdgeStyle;html=1;entryX=0.5;entryY=0;entryDx=0;entryDy=0;strokeWidth=2;fontSize=14;" parent="1" source="2" target="3" edge="1">
                    <mxGeometry relative="1" as="geometry"/>
                </mxCell>
                <mxCell id="2" value="Начало&lt;br style=&quot;font-size: 14px;&quot;&gt;Алгоритм Дейкстры" style="ellipse;whiteSpace=wrap;html=1;strokeWidth=2;fontSize=14;" parent="1" vertex="1">
                    <mxGeometry x="70" y="120" width="120" height="60" as="geometry"/>
                </mxCell>
                <mxCell id="3" value="текущий_узел := исходный_узел" style="whiteSpace=wrap;html=1;strokeWidth=2;fontSize=14;" parent="1" vertex="1">
                    <mxGeometry x="30" y="200" width="200" height="50" as="geometry"/>
                </mxCell>
                <mxCell id="26" value="" style="edgeStyle=orthogonalEdgeStyle;html=1;strokeWidth=2;entryX=0.5;entryY=0;entryDx=0;entryDy=0;fontSize=14;" parent="1" source="5" target="6" edge="1">
                    <mxGeometry relative="1" as="geometry">
                        <Array as="points">
                            <mxPoint x="260" y="295"/>
                            <mxPoint x="260" y="40"/>
                            <mxPoint x="450" y="40"/>
                        </Array>
                    </mxGeometry>
                </mxCell>
                <mxCell id="5" value="текущий_узел.стоимость := 0" style="whiteSpace=wrap;html=1;strokeWidth=2;fontSize=14;" parent="1" vertex="1">
                    <mxGeometry x="30" y="280" width="200" height="50" as="geometry"/>
                </mxCell>
                <mxCell id="12" value="" style="edgeStyle=orthogonalEdgeStyle;html=1;strokeWidth=2;fontSize=14;" parent="1" source="6" target="7" edge="1">
                    <mxGeometry relative="1" as="geometry"/>
                </mxCell>
                <mxCell id="24" value="" style="edgeStyle=orthogonalEdgeStyle;html=1;entryX=0.5;entryY=0;entryDx=0;entryDy=0;exitX=1;exitY=0.5;exitDx=0;exitDy=0;strokeWidth=2;fontSize=14;" parent="1" source="6" target="21" edge="1">
                    <mxGeometry relative="1" as="geometry">
                        <mxPoint x="690" y="340" as="sourcePoint"/>
                        <mxPoint x="170" y="290" as="targetPoint"/>
                        <Array as="points">
                            <mxPoint x="690" y="85"/>
                        </Array>
                    </mxGeometry>
                </mxCell>
                <mxCell id="6" value="Цикл&amp;nbsp; по всем узлам" style="shape=hexagon;perimeter=hexagonPerimeter2;whiteSpace=wrap;html=1;fixedSize=1;strokeWidth=2;fontSize=14;" parent="1" vertex="1">
                    <mxGeometry x="310" y="70" width="280" height="30" as="geometry"/>
                </mxCell>
                <mxCell id="9" value="" style="edgeStyle=orthogonalEdgeStyle;html=1;strokeWidth=2;fontSize=14;" parent="1" source="7" target="8" edge="1">
                    <mxGeometry relative="1" as="geometry"/>
                </mxCell>
                <mxCell id="15" value="" style="edgeStyle=orthogonalEdgeStyle;html=1;entryX=0;entryY=0.5;entryDx=0;entryDy=0;exitX=0;exitY=0.5;exitDx=0;exitDy=0;strokeWidth=2;fontSize=14;" parent="1" source="7" target="13" edge="1">
                    <mxGeometry relative="1" as="geometry">
                        <mxPoint x="250" y="150" as="targetPoint"/>
                        <Array as="points">
                            <mxPoint x="330" y="155"/>
                            <mxPoint x="330" y="298"/>
                        </Array>
                    </mxGeometry>
                </mxCell>
                <mxCell id="7" value="Цикл&amp;nbsp;&lt;br style=&quot;font-size: 14px;&quot;&gt;по соседним узлам &quot;соседний_узел_i&quot;&lt;br style=&quot;font-size: 14px;&quot;&gt;текущего узла" style="shape=hexagon;perimeter=hexagonPerimeter2;whiteSpace=wrap;html=1;fixedSize=1;strokeWidth=2;fontSize=14;" parent="1" vertex="1">
                    <mxGeometry x="360" y="120" width="180" height="70" as="geometry"/>
                </mxCell>
                <mxCell id="11" value="" style="edgeStyle=orthogonalEdgeStyle;html=1;entryX=1;entryY=0.5;entryDx=0;entryDy=0;exitX=1;exitY=0.5;exitDx=0;exitDy=0;strokeWidth=2;fontSize=14;" parent="1" source="8" target="7" edge="1">
                    <mxGeometry relative="1" as="geometry">
                        <mxPoint x="670" y="235" as="targetPoint"/>
                        <Array as="points">
                            <mxPoint x="600" y="235"/>
                            <mxPoint x="600" y="155"/>
                        </Array>
                    </mxGeometry>
                </mxCell>
                <mxCell id="8" value="вычислить стоимость(соседний_узел_i)" style="whiteSpace=wrap;html=1;strokeWidth=2;fontSize=14;" parent="1" vertex="1">
                    <mxGeometry x="350" y="210" width="200" height="50" as="geometry"/>
                </mxCell>
                <mxCell id="17" value="" style="edgeStyle=orthogonalEdgeStyle;html=1;entryX=0.5;entryY=0;entryDx=0;entryDy=0;strokeWidth=2;fontSize=14;" parent="1" source="13" target="18" edge="1">
                    <mxGeometry relative="1" as="geometry">
                        <mxPoint x="450" y="370" as="targetPoint"/>
                    </mxGeometry>
                </mxCell>
                <mxCell id="13" value="текущий_узел.обработан := true" style="whiteSpace=wrap;html=1;strokeWidth=2;fontSize=14;" parent="1" vertex="1">
                    <mxGeometry x="350" y="275" width="200" height="45" as="geometry"/>
                </mxCell>
                <mxCell id="20" value="" style="edgeStyle=orthogonalEdgeStyle;html=1;entryX=0;entryY=0.5;entryDx=0;entryDy=0;exitX=0;exitY=0.5;exitDx=0;exitDy=0;strokeWidth=2;fontSize=14;" parent="1" source="18" target="6" edge="1">
                    <mxGeometry relative="1" as="geometry">
                        <mxPoint x="650" y="385" as="targetPoint"/>
                        <Array as="points">
                            <mxPoint x="290" y="375"/>
                            <mxPoint x="290" y="85"/>
                        </Array>
                    </mxGeometry>
                </mxCell>
                <mxCell id="18" value="текущий_узел := выбор_следующего_текущего()" style="whiteSpace=wrap;html=1;strokeWidth=2;fontSize=14;" parent="1" vertex="1">
                    <mxGeometry x="340" y="350" width="220" height="50" as="geometry"/>
                </mxCell>
                <mxCell id="29" value="Граф с рассчитанными весами &lt;br style=&quot;font-size: 14px;&quot;&gt;и информацией, &lt;br style=&quot;font-size: 14px;&quot;&gt;из какого ребра пришли в узел" style="edgeStyle=orthogonalEdgeStyle;html=1;strokeWidth=2;fontSize=14;" parent="1" source="21" edge="1">
                    <mxGeometry relative="1" as="geometry">
                        <mxPoint x="690" y="400" as="targetPoint"/>
                    </mxGeometry>
                </mxCell>
                <mxCell id="21" value="Конец" style="ellipse;whiteSpace=wrap;html=1;strokeWidth=2;fontSize=14;" parent="1" vertex="1">
                    <mxGeometry x="630" y="260" width="120" height="60" as="geometry"/>
                </mxCell>
                <mxCell id="27" value="" style="edgeStyle=orthogonalEdgeStyle;html=1;exitX=0.5;exitY=1;exitDx=0;exitDy=0;entryX=0.5;entryY=0;entryDx=0;entryDy=0;strokeWidth=2;fontSize=14;" parent="1" source="3" target="5" edge="1">
                    <mxGeometry relative="1" as="geometry">
                        <mxPoint x="140" y="320" as="sourcePoint"/>
                        <mxPoint x="140" y="360" as="targetPoint"/>
                    </mxGeometry>
                </mxCell>
            </root>
        </mxGraphModel>
    </diagram>
</mxfile>